<svg data-noselect="" viewBox="0 0 400 300" width="400" height="300" preserveAspectRatio="none" version="1.1" xmlns="http://www.w3.org/2000/svg" style="background: rgba(255, 255, 255, 0);"><defs></defs> <g id="shape_eEqWGXCtf9" transform="translate(106.95676158528076,42.48172307549776) rotate(0,65.70583636836865,52.91428279974419) scale(1.4160574358499254,1.4160574358499254)" filter="" style="cursor: move; opacity: 1;"><g><rect fill="rgba(0,0,0,0)" width="151.4116727367373" height="125.82856559948839" x="-10" y="-10"></rect><svg xmlns="http://www.w3.org/2000/svg" xmlns:xlink="http://www.w3.org/1999/xlink" shape-rendering="auto" text-rendering="auto" width="131.4116727367373" contentscripttype="text/ecmascript" color-rendering="auto" color-interpolation="auto" xml:space="preserve" preserveAspectRatio="none" viewBox="0 0 99.964 87.373" image-rendering="auto" zoomAndPan="magnify" version="1.1" contentstyletype="text/css" x="0px" enable-background="new 0 0 99.964 87.373" height="105.82856559948839" y="0px" data-parent="shape_eEqWGXCtf9">
 <g fill="#e93333" id="layer2">
  <path clip-rule="evenodd" d="M3.598,45.986C1.295,56.906,5.71,68.081,15.661,75.274   c9.507,6.699,22.651,8.33,33.872,2.621c7.289-3.89,11.798-9.846,11.922-16.979c0.281-3.631-0.755-7.489-3.973-10.678   c-1.904-1.716-4.391-3.046-7.168-3.869c-3.941-0.677-8.321,0.029-10.502,3.194c-0.58,1.011-0.721,2.516,0.446,2.993   c2.487,0.705,4.968,0.785,6.872,2.498c1.168,1.105,1.905,2.338,2.2,3.711c0.597,3.988-1.438,7.531-5.37,9.977   c-6.995,4.008-15.61,3.291-22.193-0.962c-7.605-4.981-10.99-12.927-9.99-20.948c1.143-7.649,5.502-14.605,12.349-19.61   c7.43-5.389,16.325-7.682,25.959-8.732c1.897-0.165,3.941,0.673,4.962-0.471c0.582-0.386-0.731-0.613-1.025-0.732   c-3.649-0.558-6.863-1.248-10.658-0.926c-3.504,0.441-6.567,0.747-9.924,1.562C18.124,21.957,6.186,32.681,3.598,45.986   L3.598,45.986z" fill-rule="evenodd"></path>
 </g>
 <g fill="#fa4141" id="layer1">
  <path clip-rule="evenodd" d="M18.686,18.68c-7.666,8.115-9.734,19.948-5.001,31.277   c4.611,10.679,14.968,18.933,27.522,19.925c8.242,0.49,15.2-2.24,19.031-8.262c2.137-2.949,3.267-6.778,2.183-11.184   c-0.725-2.457-2.152-4.885-4.089-7.041c-3.012-2.636-7.113-4.318-10.625-2.755c-1.022,0.56-1.932,1.768-1.183,2.784   c1.75,1.9,3.829,3.263,4.555,5.72c0.424,1.553,0.405,2.988-0.06,4.311c-1.574,3.718-5.157,5.67-9.79,5.707   c-8.059-0.23-15.034-5.34-18.426-12.406c-3.888-8.223-2.625-16.761,2.416-23.083c4.969-5.928,12.318-9.586,20.77-10.278   c9.149-0.719,17.935,1.972,26.7,6.102c1.7,0.854,3.01,2.638,4.477,2.19c0.7-0.024-0.304-0.901-0.493-1.159   c-2.821-2.379-5.2-4.649-8.606-6.354c-3.215-1.453-5.991-2.792-9.276-3.85C43.62,5.77,27.836,8.686,18.686,18.68L18.686,18.68z" fill-rule="evenodd"></path>
  <path clip-rule="evenodd" d="M56.479,3.007C45.318,2.755,35.15,9.15,29.91,20.253   c-4.833,10.578-4.021,23.798,3.658,33.777c5.161,6.45,11.851,9.782,18.883,8.595c3.619-0.392,7.226-2.119,9.768-5.872   c1.332-2.188,2.185-4.877,2.48-7.756c-0.059-4-1.561-8.176-5.072-9.736c-1.104-0.383-2.604-0.247-2.862,0.992   c-0.235,2.57,0.147,5.026-1.19,7.213c-0.871,1.354-1.95,2.302-3.24,2.845c-3.813,1.321-7.663-0.027-10.798-3.442   c-5.224-6.138-6.108-14.738-3.139-21.991C41.9,16.483,49.081,11.697,57.146,11.2c7.731-0.281,15.373,2.721,21.551,8.526   c6.67,6.313,10.558,14.636,13.366,23.91c0.504,1.834,0.061,4,1.373,4.789c0.483,0.504,0.465-0.832,0.528-1.139   c-0.124-3.692-0.033-6.978-1.051-10.648c-1.076-3.36-1.944-6.316-3.358-9.463C82.771,12.861,70.027,3.101,56.479,3.007   L56.479,3.007z" fill-rule="evenodd"></path>
 </g>
 <!--Copyright (c) Logomaker.com.cn  @2015-05-31-->
</svg></g> <!----></g><g id="shapge_8YopNQaPNg" transform="translate(82.713335818491,192.341042212472) rotate(0,82.8262055,23.0136268) scale(1.4160574358499254,1.4160574358499254)" filter="" style="cursor: move; opacity: 1;"><g><svg xmlns="http://www.w3.org/2000/svg" version="1.1" xmlns:xlink="http://www.w3.org/1999/xlink" overflow="hidden" style="top:0; left: 0" width="165.652411" height="46.0272536" viewBox="0 0 165.652411 46.0272536" preserveAspectRatio="none" data-parent="shapge_8YopNQaPNg"><rect fill="rgba(0,0,0,0)" width="165.652411" height="46.0272536"></rect> <rect opacity="0"></rect><g transform="translate(0 0)" data-width="159.652411"><path fill="rgb(233, 51, 51)" d="M26.75-27.56L26.75-27.56L26.75-27.56Q26.79-27.23 26.64-26.97L26.64-26.97L26.64-26.97Q26.53-26.86 26.42-26.86L26.42-26.86L26.42-26.86Q26.31-26.86 26.07-26.97L26.07-26.97L26.07-26.97Q25.83-27.08 25.64-27.05L25.64-27.05L25.64-27.05Q25.60-27.16 25.60-27.23L25.60-27.23L25.60-27.23Q25.60-27.42 26.20-27.82L26.20-27.82L26.20-27.82Q26.34-27.90 26.45-27.90L26.45-27.90L26.45-27.90Q26.71-27.90 26.75-27.56ZM11.28-29.93L11.28-29.93L11.28-29.93Q11.43-29.64 10.88-29.64L10.88-29.64L10.88-29.64Q10.54-29.64 10.14-30.01L10.14-30.01L10.14-30.01Q10.14-30.45 10.54-30.45L10.54-30.45L10.54-30.45Q11.17-30.45 11.28-29.93ZM17.80-19.17L17.80-19.17L17.80-19.17Q17.87-18.87 17.39-17.98L17.39-17.98L17.39-17.98Q17.32-17.91 17.24-17.91L17.24-17.91L17.24-17.91Q16.95-17.91 16.95-18.43L16.95-18.43L16.95-18.43Q17.43-19.28 17.80-19.17ZM7.40-28.27L7.40-28.27L7.40-28.27Q7.40-27.90 7.10-27.42L7.10-27.42L7.10-27.42Q6.62-27.27 6.51-27.68L6.51-27.68L6.51-27.68Q6.44-28.01 7.25-28.34L7.25-28.34L7.25-28.34Q7.25-28.27 7.40-28.27ZM24.60-0.89L24.60-0.89L24.60-0.89Q24.60 0.59 24.23 1.41L24.23 1.41L23.75 2.48L23.75 2.48Q23.35 2.37 22.68 1.37L22.68 1.37L22.68 1.37Q22.16 0.55 21.35 0.74L21.35 0.74L21.35 0.74Q20.13-0.22 18.13-1.48L18.13-1.48L18.13-1.48Q14.91-3.48 14.84-3.51L14.84-3.51L14.84-3.51Q13.99-3.55 12.45-4.51L12.45-4.51L12.45-4.51Q10.91-5.48 10.14-5.55L10.14-5.55L10.14-5.55Q9.58-5.99 8.62-5.99L8.62-5.99L7.03-5.99L7.03-5.99Q6.59-5.77 6.47-4.92L6.47-4.92L6.47-4.92Q6.40-4.25 6.36-3.59L6.36-3.59L6.36-3.59Q6.77-2.96 6.77-2.00L6.77-2.00L6.77-2.00Q6.77 0.26 5.59 0.26L5.59 0.26L5.59 0.26Q5.36 0.26 4.90 0.13L4.90 0.13L4.90 0.13Q4.44 0 4.18 0L4.18 0L4.18 0Q3.81 0 3.55 0.22L3.55 0.22L3.55 0.22Q3.51 0.18 2.22 0.22L2.22 0.22L2.22 0.22Q1.37 0.22 1.04-0.18L1.04-0.18L0.44-1.37L0.67-3.03L0.67-3.03Q0.81-3.88 1.11-4.55L1.11-4.55L1.11-4.55Q1.04-4.81 1.07-5.73L1.07-5.73L1.07-5.73Q1.11-6.47 0.81-6.84L0.81-6.84L0.81-6.84Q0.89-8.10 1.37-10.32L1.37-10.32L1.37-10.32Q1.37-11.06 1.18-12.54L1.18-12.54L1.18-12.54Q1.00-14.02 1.00-14.76L1.00-14.76L1.00-14.76Q1.00-15.87 1.37-16.69L1.37-16.69L1.37-16.69Q1.00-17.54 1.00-18.65L1.00-18.65L1.00-18.65Q1.00-19.28 1.15-20.48L1.15-20.48L1.15-20.48Q1.29-21.68 1.29-22.31L1.29-22.31L1.29-22.31Q1.29-23.09 1.11-23.72L1.11-23.72L1.11-23.72Q1.26-24.12 1.76-24.75L1.76-24.75L1.76-24.75Q2.26-25.38 2.40-25.68L2.40-25.68L2.40-25.68Q2.89-25.79 3.63-25.34L3.63-25.34L3.63-25.34Q4.14-24.94 4.70-24.57L4.70-24.57L4.70-24.57Q4.81-24.46 6.99-22.98L6.99-22.98L6.99-22.98Q8.40-22.01 8.99-20.98L8.99-20.98L8.99-20.98Q9.40-20.68 10.62-20.05L10.62-20.05L10.62-20.05Q11.69-19.54 12.25-19.02L12.25-19.02L12.25-19.02Q14.50-17.61 17.17-15.61L17.17-15.61L17.76-14.73L17.76-14.73Q18.13-14.17 18.61-14.17L18.61-14.17L18.61-14.17Q18.98-14.10 19.31-15.10L19.31-15.10L19.31-15.10Q19.31-19.13 19.54-23.27L19.54-23.27L19.54-23.27Q19.57-23.75 19.24-24.73L19.24-24.73L19.24-24.73Q18.91-25.71 18.91-26.16L18.91-26.16L18.91-26.16Q18.91-27.01 19.83-27.34L19.83-27.34L19.83-27.34Q20.16-27.23 20.50-27.23L20.50-27.23L20.50-27.23Q20.94-27.23 21.74-27.55L21.74-27.55L21.74-27.55Q22.53-27.86 22.98-27.86L22.98-27.86L22.98-27.86Q23.20-27.86 23.38-27.82L23.38-27.82L23.75-27.27L23.75-27.27Q24.01-25.49 23.94-23.38L23.94-23.38L23.83-19.42L23.83-15.10L23.83-15.10Q24.01-13.39 24.14-10.05L24.14-10.05L24.14-10.05Q24.27-6.70 24.46-5.03L24.46-5.03L24.46-5.03Q24.38-4.33 24.49-2.92L24.49-2.92L24.49-2.92Q24.60-1.52 24.60-0.89ZM11.65-1.48L11.65-1.15L11.65-1.15Q11.54-1.18 11.14-1.37L11.14-1.37L11.14-1.37Q10.99-1.52 11.03-1.74L11.03-1.74L11.14-2.07L11.14-2.07Q11.32-2.15 11.65-1.48L11.65-1.48ZM-1.15-5.99L-1.15-5.99L-1.15-5.99Q-1.33-5.99-1.41-6.25L-1.41-6.25L-1.41-6.25Q-1.48-6.51-1.29-6.62L-1.29-6.62L-1.29-6.62Q-1.26-6.36-1.15-5.99ZM4.98 2.61L4.98 2.61L4.98 2.61Q4.88 2.77 4.70 2.70L4.70 2.70L4.70 2.70Q4.33 2.63 4.33 2.59L4.33 2.59L4.33 2.44L4.33 2.44Q4.33 2.03 4.70 1.96L4.70 1.96L4.70 1.96Q5.07 1.96 5.07 2.29L5.07 2.29L5.07 2.29Q5.07 2.44 4.98 2.61Z" transform="translate(0 32.4854732)"></path><path fill="rgb(233, 51, 51)" d="M17.35-14.84L17.35-14.84L17.35-14.84Q17.28-14.13 16.61-13.69L16.61-13.69L16.61-13.69Q16.39-13.65 16.24-13.65L16.24-13.65L16.24-13.65Q15.91-13.65 15.84-13.95L15.84-13.95L15.84-13.95Q15.80-14.24 16.09-14.58L16.09-14.58L16.61-15.02L16.61-15.02Q16.80-15.06 16.95-15.06L16.95-15.06L16.95-15.06Q17.28-15.06 17.35-14.84ZM20.68-5.44L20.68-4.99L20.68-4.99Q20.65-4.74 20.42-4.66L20.42-4.66L20.42-4.66Q20.16-4.66 19.91-5.18L19.91-5.18L19.91-5.18Q19.91-5.44 20.16-5.66L20.16-5.66L20.16-5.66Q20.57-5.77 20.68-5.44L20.68-5.44ZM18.35-1.52L18.35-1.52L18.35-1.52Q18.35-1.07 18.20-0.74L18.20-0.74L18.20-0.74Q17.65-0.26 16.76-0.26L16.76-0.26L16.76-0.26Q16.39-0.26 15.67-0.35L15.67-0.35L15.67-0.35Q14.95-0.44 14.58-0.44L14.58-0.44L14.58-0.44Q14.36-0.44 14.13-0.41L14.13-0.41L14.13-0.41Q13.10-0.44 11.84-0.41L11.84-0.41L11.84-0.41Q9.80-0.33 9.55-0.33L9.55-0.33L9.55-0.33Q9.10-0.48 8.55-0.48L8.55-0.48L8.55-0.48Q8.14-0.48 7.31-0.37L7.31-0.37L7.31-0.37Q6.47-0.26 6.07-0.26L6.07-0.26L6.07-0.26Q5.48-0.26 4.99-0.41L4.99-0.41L4.99-0.41Q4.92-0.44 4.14-0.44L4.14-0.44L4.14-0.44Q3.55-0.44 3.48-0.85L3.48-0.85L3.48-0.85Q3.51-1.48 3.92-2.85L3.92-2.85L3.92-2.85Q4.33-4.11 4.33-4.81L4.33-4.81L4.33-4.81Q4.33-5.25 4.22-5.66L4.22-5.66L4.22-5.66Q4.44-6.36 4.44-7.10L4.44-7.10L4.44-7.10Q4.44-7.73 4.22-8.99L4.22-8.99L4.22-8.99Q4.00-10.25 4.00-10.88L4.00-10.88L4.00-10.88Q4.00-11.21 4.03-11.54L4.03-11.54L4.03-11.54Q3.96-12.06 3.81-13.47L3.81-13.47L3.81-13.47Q3.70-14.50 3.70-15.43L3.70-15.43L3.70-15.43Q3.70-16.28 3.85-16.98L3.85-16.98L3.85-16.98Q3.70-18.09 3.70-17.94L3.70-17.94L3.70-17.94Q3.70-18.24 3.85-18.46L3.85-18.46L3.85-18.46Q4.03-18.50 4.24-18.89L4.24-18.89L4.24-18.89Q4.44-19.28 4.55-19.35L4.55-19.35L7.14-19.09L7.14-19.09Q7.29-19.09 7.77-18.91L7.77-18.91L7.77-18.91Q8.21-19.24 8.77-19.24L8.77-19.24L8.77-19.24Q9.21-19.24 10.08-18.98L10.08-18.98L10.08-18.98Q10.95-18.72 11.40-18.72L11.40-18.72L11.40-18.72Q11.73-18.72 12.02-18.80L12.02-18.80L12.02-18.80Q12.14-18.72 12.25-18.72L12.25-18.72L12.25-18.72Q12.32-18.72 12.65-18.93L12.65-18.93L12.65-18.93Q12.99-19.13 13.15-19.18L13.15-19.18L13.15-19.18Q13.32-19.24 13.58-19.24L13.58-19.24L13.58-19.24Q13.95-19.24 14.65-19.02L14.65-19.02L14.65-19.02Q15.35-18.80 15.72-18.80L15.72-18.80L15.72-18.80Q16.21-18.80 16.61-19.09L16.61-19.09L16.61-19.09Q17.80-19.09 18.20-18.72L18.20-18.72L18.20-18.72Q18.28-17.35 18.28-17.24L18.28-17.24L18.28-17.24Q18.24-16.35 17.87-15.87L17.87-15.87L17.87-15.87Q17.24-15.87 16.04-16.00L16.04-16.00L16.04-16.00Q14.84-16.13 14.21-16.13L14.21-16.13L14.21-16.13Q13.32-16.13 12.62-15.91L12.62-15.91L12.62-15.91Q12.32-15.58 12.14-14.98L12.14-14.98L11.77-13.80L11.77-13.80Q11.62-12.73 11.62-12.06L11.62-12.06L11.62-12.06Q11.62-10.10 12.91-9.40L12.91-9.40L12.91-9.40Q14.21-8.99 17.54-9.14L17.54-9.14L17.54-9.14Q17.83-9.14 18.20-9.25L18.20-9.25L18.20-9.25Q18.31-9.03 18.31-8.69L18.31-8.69L18.31-8.69Q18.31-8.29 18.13-7.73L18.13-7.73L18.13-7.73Q18.06-7.58 18.02-6.66L18.02-6.66L18.02-6.66Q17.98-5.99 17.50-5.81L17.50-5.81L17.50-5.81Q15.87-5.88 12.91-5.25L12.91-5.25L12.62-4.99L12.62-4.99Q12.62-4.77 12.51-4.35L12.51-4.35L12.51-4.35Q12.39-3.92 12.39-3.70L12.39-3.70L12.39-3.70Q12.39-3.37 12.54-3.14L12.54-3.14L12.54-3.14Q13.47-2.40 15.02-2.52L15.02-2.52L15.02-2.52Q15.58-3.07 16.65-3.07L16.65-3.07L16.65-3.07Q17.13-3.07 17.80-2.96L17.80-2.96L17.80-2.96Q18.35-2.40 18.35-1.52ZM13.39 2.33L13.39 2.33L13.39 2.33Q13.39 2.81 13.06 2.85L13.06 2.85L12.80 2.40L12.02 2.00L12.69 1.85L13.21 1.41L13.21 1.41Q13.39 1.85 13.39 2.33ZM4.48 1.92L4.48 1.92L4.48 1.92Q4.40 2.11 4.14 2.37L4.14 2.37L4.14 2.37Q3.88 2.44 3.63 2.18L3.63 2.18L3.63 2.18Q3.63 1.59 4.07 1.59L4.07 1.59L4.07 1.59Q4.25 1.59 4.48 1.92Z" transform="translate(26.9725626 32.4854732)"></path><path fill="rgb(233, 51, 51)" d="M18.24-14.21L18.24-14.21L18.24-14.21Q18.28-14.02 18.28-13.80L18.28-13.80L18.28-13.80Q18.28-13.32 17.98-12.84L17.98-12.84L17.98-12.84Q18.06-12.73 17.98-12.62L17.98-12.62L17.87-12.51L17.87-12.51Q17.72-12.51 17.72-12.62L17.72-12.62L17.72-12.62Q17.72-12.73 17.80-12.84L17.80-12.84L17.80-12.84Q18.13-12.95 18.24-14.21ZM17.32-9.73L17.32-9.73L17.32-9.73Q17.28-9.40 16.58-8.84L16.58-8.84L16.58-8.84Q16.32-8.62 16.17-9.06L16.17-9.06L16.17-9.06Q16.17-9.32 16.43-9.55L16.43-9.55L16.87-9.92L16.87-9.92Q17.06-9.92 17.32-9.73ZM8.25-18.17L8.25-17.91L8.25-17.91Q8.14-17.80 7.47-17.50L7.47-17.50L7.47-17.50Q6.96-17.28 6.88-16.95L6.88-16.95L6.88-16.95Q6.84-16.91 6.40-16.46L6.40-16.46L6.40-16.46Q6.07-16.17 5.85-16.17L5.85-16.17L5.85-16.17Q5.73-16.17 5.62-16.21L5.62-16.21L5.62-16.21Q5.96-16.76 6.70-17.69L6.70-17.69L6.70-17.69Q6.92-17.69 7.46-17.96L7.46-17.96L7.46-17.96Q7.99-18.24 8.25-18.17L8.25-18.17ZM5.62-19.13L5.62-19.13L5.62-19.13Q5.55-19.02 4.96-18.61L4.96-18.61L4.96-18.61Q4.51-18.31 4.59-17.91L4.59-17.91L4.59-17.91Q4.44-17.65 4.22-17.72L4.22-17.72L4.22-17.72Q3.92-17.94 3.96-18.35L3.96-18.35L3.96-18.35Q4.11-19.54 4.11-19.05L4.11-19.05L4.11-19.05Q4.59-19.24 5.36-19.61L5.36-19.61L5.36-19.61Q5.62-19.57 5.62-19.13ZM17.57-14.28L17.57-14.28L17.57-14.28Q17.57-12.65 15.80-11.14L15.80-11.14L15.80-11.14Q14.84-10.77 14.24-10.77L14.24-10.77L14.24-10.77Q13.95-10.77 13.76-10.84L13.76-10.84L13.76-10.84Q12.47-12.14 12.47-12.62L12.47-12.62L12.47-12.62Q12.47-12.84 12.58-13.02L12.58-13.02L12.58-13.02Q12.58-13.50 13.10-13.80L13.10-13.80L13.10-13.80Q13.80-14.21 13.84-14.32L13.84-14.32L13.84-14.32Q14.02-14.36 14.36-14.24L14.36-14.24L14.36-14.24Q14.69-14.13 14.76-14.13L14.76-14.13L14.76-14.13Q14.87-14.13 14.95-14.21L14.95-14.21L14.95-14.21Q14.87-14.65 14.43-14.91L14.43-14.91L14.43-14.91Q14.06-15.06 13.65-15.24L13.65-15.24L13.65-15.24Q11.43-15.24 10.66-13.36L10.66-13.36L10.66-13.36Q10.54-13.10 10.54-12.73L10.54-12.73L10.54-12.73Q10.54-12.32 11.19-11.71L11.19-11.71L11.19-11.71Q11.84-11.10 11.95-10.77L11.95-10.77L11.95-10.77Q12.54-10.73 12.95-10.14L12.95-10.14L12.95-10.14Q13.02-10.03 13.47-9.03L13.47-9.03L13.47-9.03Q13.76-8.77 14.69-7.92L14.69-7.92L14.69-7.92Q15.32-7.33 15.54-6.66L15.54-6.66L15.54-6.66Q16.43-5.92 16.43-5.11L16.43-5.11L16.43-5.11Q16.43-4.92 16.39-4.74L16.39-4.74L16.39-4.74Q15.87-4.11 15.54-3.48L15.54-3.48L15.54-3.48Q13.13-0.74 11.10 0.92L11.10 0.92L11.10 0.92Q10.77 0.89 10.16 0.98L10.16 0.98L10.16 0.98Q9.55 1.07 9.29 1.07L9.29 1.07L9.29 1.07Q8.73 1.07 8.36 0.67L8.36 0.67L8.36 0.67Q7.92 0.67 7.07 0.92L7.07 0.92L7.07 0.92Q6.55 1.00 5.49 0.68L5.49 0.68L5.49 0.68Q4.44 0.37 3.92 0.44L3.92 0.44L3.92 0.44Q3.77 0.41 3.37-0.15L3.37-0.15L3.37-0.15Q3.03-0.59 2.63-0.48L2.63-0.48L2.63-0.48Q2.26-0.78 1.22-1.17L1.22-1.17L1.22-1.17Q0.18-1.55-0.22-2.00L-0.22-2.00L-0.22-2.00Q-0.55-2.00-1.04-2.18L-1.04-2.18L-1.04-2.18Q-1.00-2.59 0.18-4.03L0.18-4.03L0.18-4.03Q0.44-4.22 0.67-4.22L0.67-4.22L0.67-4.22Q0.85-4.22 1.44-3.87L1.44-3.87L1.44-3.87Q2.03-3.51 2.33-3.55L2.33-3.55L2.33-3.55Q3.33-3.44 5.18-3.00L5.18-3.00L5.99-3.07L5.99-3.07Q6.51-3.18 6.66-3.48L6.66-3.48L6.66-3.48Q6.96-3.18 7.21-3.18L7.21-3.18L7.21-3.18Q7.36-3.18 7.51-3.29L7.51-3.29L7.51-3.29Q7.88-3.37 8.29-3.96L8.29-3.96L8.29-3.96Q8.32-4.25 7.70-4.90L7.70-4.90L7.70-4.90Q7.07-5.55 7.21-6.03L7.21-6.03L7.21-6.03Q7.03-6.22 6.84-6.14L6.84-6.14L6.70-5.96L6.70-5.96Q6.51-6.03 5.90-6.66L5.90-6.66L5.90-6.66Q5.29-7.29 4.81-7.36L4.81-7.36L4.81-7.36Q4.62-7.55 4.14-8.55L4.14-8.55L4.14-8.55Q3.74-9.32 3.26-9.58L3.26-9.58L3.26-9.58Q3.33-9.84 2.92-10.17L2.92-10.17L2.92-10.17Q2.52-10.51 2.52-10.58L2.52-10.58L2.52-10.58Q2.52-10.95 3.37-12.17L3.37-12.17L3.37-12.17Q3.74-13.43 5.11-14.65L5.11-14.65L5.11-14.65Q6.92-16.28 7.33-16.80L7.33-16.80L7.33-16.80Q8.03-17.24 9.47-18.20L9.47-18.20L9.47-18.20Q9.88-18.65 10.32-18.57L10.32-18.57L10.32-18.57Q10.73-18.43 11.97-18.52L11.97-18.52L11.97-18.52Q13.21-18.61 13.80-18.39L13.80-18.39L13.80-18.39Q14.73-17.98 14.91-17.87L14.91-17.87L14.91-17.87Q15.65-17.50 15.80-17.13L15.80-17.13L15.80-17.13Q16.50-16.83 17.50-14.98L17.50-14.98L17.50-14.98Q17.57-14.65 17.57-14.28ZM7.40-4.51L7.40-4.51L7.40-4.51Q7.44-4.25 7.25-3.96L7.25-3.96L7.25-3.96Q6.96-3.85 6.96-4.51L6.96-4.51L6.96-4.51Q6.92-4.55 6.59-4.70L6.59-4.70L6.59-4.70Q6.25-4.85 6.25-4.99L6.25-4.99L6.25-4.99Q6.25-5.07 6.29-5.18L6.29-5.18L6.29-5.18Q6.73-5.03 6.88-4.96L6.88-4.96L6.88-4.96Q7.21-4.77 7.40-4.51ZM4.14-6.96L4.14-6.96L4.14-6.96Q3.92-6.62 3.63-6.62L3.63-6.62L3.63-6.62Q3.07-6.62 3.07-6.99L3.07-6.99L3.07-6.99Q3.07-7.25 3.37-7.62L3.37-7.62L3.37-7.62Q3.44-7.70 3.55-7.70L3.55-7.70L3.55-7.70Q3.63-7.70 3.74-7.66L3.74-7.66L3.74-7.66Q3.92-7.47 4.14-6.96ZM1.18 2.44L1.18 2.44L1.18 2.44Q0.92 2.70 0.74 2.63L0.74 2.63L0.74 2.63Q0.55 2.59 0.55 2.48L0.55 2.48L0.55 2.48Q0.59 2.40 0.67 2.33L0.67 2.33L0.67 2.33Q0.89 2.22 1.04 2.22L1.04 2.22L1.04 2.22Q1.22 2.22 1.18 2.44Z" transform="translate(49.246201400000004 32.4854732)"></path><path fill="rgb(233, 51, 51)" d="M24.38-20.02L24.38-19.87L24.09-19.87L24.09-20.02L24.38-20.02ZM21.68-9.77L21.68-9.77L21.68-9.77Q21.57-9.32 21.46-9.32L21.46-9.32L21.46-9.32Q21.20-9.32 21.20-9.80L21.20-9.80L21.20-9.80Q21.20-10.06 21.24-10.43L21.24-10.43L21.24-10.43Q21.31-10.51 21.39-10.51L21.39-10.51L21.39-10.51Q21.83-10.51 21.68-9.77ZM26.38-15.87L26.38-15.87L26.38-15.87Q25.94-15.61 25.12-15.61L25.12-15.61L24.31-15.61L24.31-15.61Q23.38-15.61 22.94-15.28L22.94-15.28L22.94-15.28Q22.72-15.28 22.31-15.35L22.31-15.35L22.31-15.35Q21.90-15.43 21.68-15.43L21.68-15.43L21.68-15.43Q21.42-15.43 21.16-15.28L21.16-15.28L20.76-15.35L20.76-15.39L20.76-15.39Q20.61-15.43 20.50-15.43L20.50-15.43L20.50-15.43Q19.35-15.43 19.31-14.17L19.31-14.17L19.31-14.17Q19.28-12.91 18.76-10.73L18.76-10.73L18.76-10.73Q18.72-9.95 18.91-8.44L18.91-8.44L18.91-8.44Q18.72-7.62 18.72-5.44L18.72-5.44L18.72-5.44Q18.72-3.51 18.39-2.52L18.39-2.52L18.39-2.26L18.39-2.26Q18.39-2.03 18.48-1.63L18.48-1.63L18.48-1.63Q18.57-1.22 18.57-1.04L18.57-1.04L18.57-1.04Q18.57-0.59 18.24-0.41L18.24-0.41L18.24-0.41Q16.76-0.41 16.06-0.63L16.06-0.63L16.06-0.63Q15.21-0.44 14.36-0.44L14.36-0.44L14.36-0.44Q13.13-0.44 11.58-0.81L11.58-0.81L8.92-1.44L8.92-1.44Q8.77-1.44 8.44-1.37L8.44-1.37L8.44-1.37Q8.14-1.29 7.99-1.48L7.99-1.48L7.99-1.48Q7.95-1.89 7.95-2.33L7.95-2.33L7.95-2.33Q7.95-3.00 8.08-4.35L8.08-4.35L8.08-4.35Q8.21-5.70 8.21-6.36L8.21-6.36L8.21-6.36Q8.69-8.77 8.69-11.43L8.69-11.43L8.69-11.43Q8.69-12.21 8.66-13.02L8.66-13.02L8.66-13.02Q8.73-13.28 8.73-13.65L8.73-13.65L8.73-13.65Q8.73-14.36 8.47-15.39L8.47-15.39L8.47-15.39Q8.47-15.50 8.57-15.67L8.57-15.67L8.57-15.67Q8.66-15.84 8.66-15.87L8.66-15.87L8.66-15.87Q8.62-15.95 8.47-16.06L8.47-16.06L8.47-16.06Q7.92-16.06 6.92-16.21L6.92-16.21L6.66-16.21L6.66-16.21Q6.47-16.21 6.09-16.11L6.09-16.11L6.09-16.11Q5.70-16.02 5.51-16.02L5.51-16.02L5.51-16.02Q5.18-16.02 4.96-16.32L4.96-16.32L4.96-16.32Q4.85-16.24 4.74-16.24L4.74-16.24L4.74-16.24Q4.40-16.24 4.33-16.65L4.33-16.65L4.33-16.65Q4.25-16.83 4.03-16.85L4.03-16.85L4.03-16.85Q3.81-16.87 3.77-16.91L3.77-16.91L3.77-16.91Q3.85-17.06 3.85-17.17L3.85-17.17L3.85-17.17Q3.85-17.32 3.70-17.56L3.70-17.56L3.70-17.56Q3.55-17.80 3.55-17.91L3.55-17.91L3.55-17.91Q3.55-18.02 3.63-18.13L3.63-18.13L3.63-18.13Q4.18-18.46 4.18-18.91L4.18-18.91L4.18-18.91Q4.18-19.05 4.14-19.20L4.14-19.20L4.14-19.20Q4.07-19.28 4.18-19.68L4.18-19.68L4.18-19.68Q7.44-19.83 12.80-18.80L12.80-18.80L12.80-18.80Q15.06-19.09 16.54-19.09L16.54-19.09L16.54-19.09Q17.35-19.09 18.09-19.02L18.09-19.02L18.09-19.02Q18.13-18.91 18.24-18.91L18.24-18.91L18.24-18.91Q18.31-18.91 18.50-18.98L18.50-18.98L18.50-18.98Q18.68-19.05 18.76-19.02L18.76-19.02L18.76-19.02Q19.02-18.98 19.50-19.02L19.50-19.02L19.50-19.02Q20.09-19.05 20.31-19.05L20.31-19.05L20.31-19.05Q21.09-19.05 21.42-18.65L21.42-18.65L21.42-18.65Q21.64-18.65 22.13-18.98L22.13-18.98L22.13-18.98Q23.09-18.87 23.94-18.87L23.94-18.87L23.94-18.87Q25.05-18.87 26.01-19.02L26.01-19.02L26.01-19.02Q26.12-18.80 26.12-18.39L26.12-18.39L26.12-18.39Q26.12-18.54 26.12-18.39L26.12-18.39L26.12-18.39Q26.08-18.24 26.08-17.94L26.08-17.94L26.08-17.50L26.08-17.50Q26.08-16.83 26.38-16.46L26.38-16.46L26.38-16.46Q26.45-16.24 26.45-16.09L26.45-16.09L26.45-16.09Q26.45-15.95 26.38-15.87ZM5.99-13.28L5.99-13.28L5.99-13.28Q5.99-13.10 5.88-12.99L5.88-12.99L5.88-12.99Q5.22-12.76 5.22-12.76L5.22-12.76L5.22-12.76Q4.85-12.76 4.85-13.17L4.85-13.17L4.85-13.17Q4.85-13.28 4.92-13.39L4.92-13.39L4.92-13.39Q5.40-13.76 5.62-13.76L5.62-13.76L5.62-13.76Q5.99-13.62 5.99-13.28ZM7.18-8.14L7.18-8.14L7.18-8.14Q7.18-8.03 7.10-7.79L7.10-7.79L7.10-7.79Q7.03-7.55 7.03-7.40L7.03-7.40L7.03-7.40Q7.03-7.29 7.10-7.18L7.10-7.18L7.10-7.18Q7.03-7.14 6.96-7.14L6.96-7.14L6.96-7.14Q6.73-7.14 6.73-7.40L6.73-7.40L6.73-7.40Q6.73-7.51 6.77-7.66L6.77-7.66L6.77-7.66Q6.73-7.95 6.96-8.44L6.96-8.44L6.96-8.44Q7.18-8.36 7.18-8.14ZM9.18 0.44L9.18 0.44L9.03 0.70L9.03 0.70Q8.62 0.70 8.29 0.41L8.29 0.41L8.29 0.41Q8.25 0.22 8.73-0.15L8.73-0.15L8.73-0.15Q8.81-0.18 8.88-0.18L8.88-0.18L8.88-0.18Q9.03-0.18 9.18 0.44ZM9.95-10.43L9.95-10.43L9.95-10.43Q9.66-10.73 9.69-10.88L9.69-10.88L9.69-10.88Q9.25-10.95 9.25-10.54L9.25-10.54L9.25-10.54Q9.25-10.43 9.40-10.40L9.40-10.40L9.40-10.40Q9.51-10.36 9.69-10.40L9.69-10.40L9.69-10.40Q9.80-10.43 9.95-10.43Z" transform="translate(68.37489120000001 32.4854732)"></path><path fill="rgb(233, 51, 51)" d="M5.81-21.02L5.81-21.02L5.81-21.02Q5.77-20.72 5.33-20.24L5.33-20.24L5.33-20.24Q5.25-20.31 5.14-20.31L5.14-20.31L5.14-20.31Q5.07-20.31 4.94-20.18L4.94-20.18L4.94-20.18Q4.81-20.05 4.74-20.05L4.74-20.05L4.74-20.05Q4.62-20.09 4.55-20.13L4.55-20.13L4.55-20.13Q4.55-20.50 4.88-20.78L4.88-20.78L4.88-20.78Q5.22-21.05 5.59-21.05L5.59-21.05L5.59-21.05Q5.70-21.05 5.81-21.02ZM0.85-25.71L0.85-25.71L0.85-25.71Q0.78-25.60 0.55-24.83L0.55-24.83L0.55-24.83Q0.41-24.20 0-24.09L0-24.09L0-24.09Q-0.48-24.94-0.48-25.27L-0.48-25.27L-0.48-25.27Q-0.48-25.49-0.33-25.71L-0.33-25.71L-0.33-25.71Q0-26.05 0.44-26.05L0.44-26.05L0.44-26.05Q0.78-26.05 0.85-25.71ZM9.51-6.70L9.51-6.70L9.51-6.70Q9.14-6.73 9.14-7.25L9.14-7.25L9.14-7.25Q9.10-7.99 9.10-8.03L9.10-8.03L9.10-8.03Q9.06-8.40 9.06-8.69L9.06-8.69L9.06-8.69Q9.06-9.62 9.40-10.06L9.40-10.06L9.40-10.06Q9.40-7.44 9.51-6.70ZM7.29-17.87L8.47-17.87L8.47-17.87Q8.55-17.28 8.25-15.87L8.25-15.87L8.25-15.87Q7.88-14.21 7.84-13.69L7.84-13.69L7.84-13.69Q7.58-12.21 7.58-9.62L7.58-9.62L7.58-9.62Q7.58-7.77 8.14-1.18L8.14-1.18L8.14-1.18Q8.18-0.89 7.99-0.18L7.99-0.18L7.99-0.18Q6.92 0.18 5.99 0.18L5.99 0.18L5.99 0.18Q5.07 0.18 3.59 0.07L3.59 0.07L3.59 0.07Q1.70-0.07 1.15-0.11L1.15-0.11L1.15-0.11Q1.04-0.44 1.04-0.78L1.04-0.78L1.04-0.78Q1.04-1.18 1.18-2.00L1.18-2.00L1.18-2.00Q1.33-2.81 1.33-3.22L1.33-3.22L1.33-3.22Q1.44-4.14 1.22-6.84L1.22-6.84L1.22-6.84Q1.18-7.33 1.26-8.14L1.26-8.14L1.26-8.14Q1.37-9.10 1.37-9.43L1.37-9.43L1.37-9.43Q1.37-10.10 1.22-10.62L1.22-10.62L1.22-10.62Q1.29-11.91 1.15-16.69L1.15-16.69L1.15-16.69Q0.67-17.65 0.78-18.17L0.78-18.17L0.78-18.17Q1.89-18.65 2.85-18.65L2.85-18.65L2.85-18.65Q3.26-18.65 3.66-18.57L3.66-18.57L3.66-18.57Q4.40-18.20 7.29-17.87L7.29-17.87ZM-0.81-13.06L-0.55-12.99L-0.70-12.58L-0.70-12.58Q-0.78-12.62-0.96-12.76L-0.96-12.76L-0.96-12.76Q-0.96-12.91-0.81-13.06L-0.81-13.06ZM-0.89-8.10L-0.89-8.10L-0.89-8.10Q-0.81-7.95-1.11-7.66L-1.11-7.66L-1.11-7.66Q-1.18-7.70-1.37-7.88L-1.37-7.88L-1.37-7.88Q-1.37-8.14-1.11-8.14L-1.11-8.14L-1.11-8.14Q-1.00-8.14-0.89-8.10ZM8.47 0.92L8.47 0.92L8.47 0.92Q8.51 1.18 8.25 1.26L8.25 1.26L8.25 1.26Q7.88 1.37 7.84 1.41L7.84 1.41L7.84 1.41Q7.51 1.22 6.97 1.18L6.97 1.18L6.97 1.18Q6.44 1.15 5.96 1.15L5.96 1.15L5.33 1.15L5.33 1.15Q5.48 0.74 6.22 0.74L6.22 0.74L6.22 0.74Q7.25 0.74 7.36 0.70L7.36 0.70L7.36 0.70Q7.55 0.92 8.47 0.92Z" transform="translate(96.8274298 32.4854732)"></path><path fill="rgb(233, 51, 51)" d="M6.81-22.27L6.81-22.27L6.81-22.27Q6.77-21.98 6.07-21.98L6.07-21.98L6.07-21.98Q5.85-21.98 5.40-21.87L5.40-21.87L5.40-21.87Q4.96-21.76 4.74-21.76L4.74-21.76L4.74-21.76Q4.37-21.76 4.14-22.01L4.14-22.01L4.14-22.01Q4.96-23.12 6.22-22.94L6.22-22.94L6.22-22.94Q6.36-22.61 6.44-22.53L6.44-22.53L6.44-22.53Q6.59-22.35 6.81-22.27ZM19.31-5.18L19.31-5.18L19.31-5.18Q19.35-4.88 18.57-4.48L18.57-4.48L18.57-4.48Q18.13-4.37 18.13-4.96L18.13-4.96L18.13-4.96Q18.13-5.11 18.39-5.70L18.39-5.70L18.39-5.70Q18.54-5.81 18.68-5.81L18.68-5.81L18.68-5.81Q19.17-5.81 19.31-5.18ZM22.53-12.58L22.53-12.58L22.53-12.58Q22.53-12.32 22.38-11.64L22.38-11.64L22.38-11.64Q22.24-10.95 22.31-10.58L22.31-10.58L22.31-10.58Q22.27-10.29 21.64-9.80L21.64-9.80L21.64-9.80Q21.35-9.88 20.98-9.88L20.98-9.88L20.98-9.88Q20.57-9.88 19.61-9.73L19.61-9.73L19.61-9.73Q18.65-9.58 18.13-9.62L18.13-9.62L18.13-9.62Q15.43-9.29 14.39-9.29L14.39-9.29L13.50-9.29L13.50-9.29Q13.43-9.14 13.43-8.95L13.43-8.95L13.43-8.95Q13.43-8.81 13.52-8.38L13.52-8.38L13.52-8.38Q13.62-7.95 13.58-7.73L13.58-7.73L13.58-7.73Q13.58-6.99 13.67-5.57L13.67-5.57L13.67-5.57Q13.76-4.14 13.76-3.40L13.76-3.40L13.76-3.40Q13.99-3.11 14.19-2.02L14.19-2.02L14.19-2.02Q14.39-0.92 14.80-0.55L14.80-0.55L14.80-0.55Q14.65-0.30 14.13-0.30L14.13-0.30L13.36-0.30L13.36-0.30Q12.73-0.48 11.91-0.48L11.91-0.48L11.91-0.48Q11.06-0.48 9.62-0.30L9.62-0.30L9.62-0.30Q7.95-0.11 7.33-0.07L7.33-0.07L7.33-0.07Q6.59-0.04 4.25-0.04L4.25-0.04L4.25-0.04Q3.88-0.33 3.88-0.55L3.88-0.55L3.88-0.55Q4.07-2.33 4.51-5.88L4.51-5.88L4.11-8.07L4.11-8.07Q3.88-9.25 3.88-10.32L3.88-10.32L3.88-10.32Q4.37-11.28 4.37-12.65L4.37-12.65L4.37-12.65Q4.37-12.28 4.00-16.17L4.00-16.17L4.00-16.17Q3.96-16.80 3.87-17.48L3.87-17.48L3.87-17.48Q3.77-18.17 3.44-18.54L3.44-18.54L3.44-18.54Q3.51-18.94 4.77-19.13L4.77-19.13L4.77-19.13Q5.70-19.68 7.07-19.68L7.07-19.68L7.07-19.68Q7.70-19.68 8.97-19.52L8.97-19.52L8.97-19.52Q10.25-19.35 10.88-19.35L10.88-19.35L10.88-19.35Q11.99-19.35 12.80-19.46L12.80-19.46L14.73-19.72L14.73-19.72Q15.54-19.57 16.32-19.57L16.32-19.57L17.32-19.57L17.32-19.57Q18.54-19.57 19.31-19.39L19.31-19.39L19.31-19.39Q19.68-19.39 20.61-19.50L20.61-19.50L20.61-19.50Q21.53-19.61 22.01-19.57L22.01-19.57L22.01-19.57Q22.05-19.31 22.05-18.98L22.05-18.98L22.05-18.98Q22.05-18.61 21.90-17.87L21.90-17.87L21.90-17.87Q21.76-17.13 21.76-16.76L21.76-16.76L21.76-16.76Q21.20-16.28 20.39-16.28L20.39-16.28L20.39-16.28Q19.83-16.28 18.94-16.54L18.94-16.54L17.57-16.95L17.57-16.95Q16.54-16.83 14.54-16.43L14.54-16.43L14.54-16.43Q13.87-16.46 12.69-15.06L12.69-15.06L12.69-15.06Q12.62-14.95 12.62-14.80L12.62-14.80L12.62-14.80Q12.62-13.50 15.17-13.50L15.17-13.50L15.17-13.50Q15.58-13.50 16.43-13.56L16.43-13.56L16.43-13.56Q17.28-13.62 17.69-13.62L17.69-13.62L17.69-13.62Q18.65-13.62 19.35-13.36L19.35-13.36L19.35-13.36Q19.98-13.50 20.87-13.50L20.87-13.50L20.87-13.50Q21.50-13.50 22.27-13.43L22.27-13.43L22.27-13.43Q22.53-13.06 22.53-12.58ZM16.09-6.73L16.09-6.73L16.09-6.73Q16.02-6.73 15.93-6.68L15.93-6.68L15.93-6.68Q15.84-6.62 15.80-6.62L15.80-6.62L15.80-6.62Q15.58-6.62 15.58-6.96L15.58-6.96L15.58-6.96Q15.58-7.07 15.61-7.25L15.61-7.25L15.61-7.25Q15.72-7.33 15.84-7.33L15.84-7.33L15.84-7.33Q16.17-7.33 16.09-6.73ZM3.11-12.91L3.11-12.91L3.11-12.91Q3.14-12.65 3.03-12.25L3.03-12.25L3.03-12.25Q2.92-11.84 2.92-11.65L2.92-11.65L2.92-11.65Q2.92-11.51 3.00-11.36L3.00-11.36L3.00-11.36Q2.66-11.36 2.44-11.73L2.44-11.73L2.44-11.73Q2.07-12.39 2.07-12.58L2.07-12.58L2.07-12.58Q2.07-13.17 2.59-13.17L2.59-13.17L2.59-13.17Q2.81-13.17 3.11-12.91ZM10.47 1.29L11.10 1.44L10.32 1.85L10.10 2.29L10.10 2.29Q9.77 2.29 9.77 1.78L9.77 1.78L9.77 1.78Q9.77 1.29 9.92 0.89L9.92 0.89L10.47 1.29ZM3.55-4.29L3.55-4.29L3.55-4.29Q3.51-4.11 3.26-3.85L3.26-3.85L3.26-3.85Q2.89-3.74 2.77-4.03L2.77-4.03L2.77-4.03Q2.92-4.48 3.18-4.48L3.18-4.48L3.18-4.48Q3.26-4.51 3.39-4.40L3.39-4.40L3.39-4.40Q3.51-4.29 3.55-4.29Z" transform="translate(108.00124860000001 32.4854732)"></path><path fill="rgb(233, 51, 51)" d="M22.64-21.83L22.64-21.83L22.64-21.83Q22.20-21.94 22.09-22.20L22.09-22.20L22.09-22.20Q22.01-22.35 22.38-22.35L22.38-22.35L22.38-22.35Q22.83-22.24 22.83-22.01L22.83-22.01L22.83-22.01Q22.83-21.83 22.64-21.83ZM12.36-20.28L12.36-20.05L12.36-20.05Q12.06-20.05 11.95-20.42L11.95-20.42L12.06-20.57L12.06-20.57Q12.17-20.50 12.36-20.28L12.36-20.28ZM10.10-21.83L10.10-21.83L10.10-21.83Q9.92-21.46 9.73-21.50L9.73-21.50L9.73-21.50Q9.62-22.01 9.88-22.13L9.88-22.13L9.88-22.13Q10.17-22.13 10.10-21.83ZM24.16-16.58L24.16-16.58L24.16-16.58Q23.20-16.39 22.31-15.47L22.31-15.47L20.83-13.87L20.83-13.87Q20.39-13.10 19.42-12.28L19.42-12.28L19.42-12.28Q17.46-10.66 17.46-9.77L17.46-9.77L17.46-9.77Q17.46-9.36 17.69-8.44L17.69-8.44L17.69-8.44Q17.91-7.51 17.83-6.99L17.83-6.99L17.83-6.99Q18.02-3.51 17.94-1.85L17.94-1.85L17.94-1.85Q17.91-1.70 17.76-1.48L17.76-1.48L17.76-1.48Q17.80-1.41 17.94-1.04L17.94-1.04L17.94-1.04Q18.02-0.78 17.94-0.55L17.94-0.55L17.94-0.55Q17.50-0.26 16.58-0.26L16.58-0.26L16.58-0.26Q16.39-0.37 16.24-0.37L16.24-0.37L16.24-0.37Q16.17-0.37 15.80-0.26L15.80-0.26L15.80-0.26Q15.58-0.18 15.35-0.26L15.35-0.26L15.35-0.26Q15.06-0.37 14.61-0.37L14.61-0.37L14.61-0.37Q14.36-0.37 13.82-0.31L13.82-0.31L13.82-0.31Q13.28-0.26 13.02-0.26L13.02-0.26L13.02-0.26Q12.47-0.44 11.25-0.52L11.25-0.52L11.25-0.52Q10.03-0.59 9.47-0.78L9.47-0.78L9.47-0.78Q9.21-1.04 9.21-1.29L9.21-1.29L9.21-1.29Q9.21-1.44 9.32-1.55L9.32-1.55L9.32-1.55Q9.69-2.77 9.69-2.89L9.69-2.89L9.69-2.89Q9.69-3.29 9.40-3.63L9.40-3.63L9.40-3.63Q9.40-4.00 9.29-4.99L9.29-4.99L9.29-4.99Q9.21-5.85 9.25-6.29L9.25-6.29L9.25-6.29Q8.92-7.29 7.58-9.43L7.58-9.43L7.58-9.43Q7.33-9.84 6.51-10.47L6.51-10.47L6.51-10.47Q5.70-11.10 5.44-11.54L5.44-11.54L5.44-11.54Q5.36-11.80 4.77-12.04L4.77-12.04L4.77-12.04Q4.18-12.28 4.11-12.58L4.11-12.58L4.11-12.58Q4.07-13.17 3.11-13.93L3.11-13.93L3.11-13.93Q2.15-14.69 2.07-15.06L2.07-15.06L2.07-15.06Q1.81-15.24 1.89-15.54L1.89-15.54L1.89-15.54Q1.96-15.61 2.22-16.32L2.22-16.32L6.59-19.28L6.59-19.28Q6.66-19.31 6.92-19.42L6.92-19.42L6.92-19.42Q7.18-19.54 7.25-19.68L7.25-19.68L7.25-19.68Q7.25-20.02 7.40-20.16L7.40-20.16L7.40-20.16Q7.58-20.02 7.92-20.02L7.92-20.02L7.92-20.02Q7.99-20.02 8.14-20.05L8.14-20.05L8.40-20.05L8.40-20.05Q8.77-20.05 8.92-19.76L8.92-19.76L8.92-19.76Q8.73-18.39 9.69-17.28L9.69-17.28L9.69-17.28Q9.92-17.02 11.43-15.43L11.43-15.43L11.43-15.43Q12.58-15.10 12.62-15.06L12.62-15.06L12.62-15.06Q13.32-14.76 13.54-14.36L13.54-14.36L13.54-14.36Q13.80-14.32 14.23-13.78L14.23-13.78L14.23-13.78Q14.65-13.25 14.87-13.25L14.87-13.25L14.87-13.25Q15.06-13.25 15.32-13.39L15.32-13.39L15.32-13.39Q16.35-14.43 18.50-16.35L18.50-16.35L18.50-16.35Q18.91-16.58 19.74-17.50L19.74-17.50L19.74-17.50Q20.57-18.43 21.20-18.65L21.20-18.65L21.20-18.65Q21.72-19.02 22.75-19.87L22.75-19.87L22.75-19.87Q22.98-19.79 23.09-19.46L23.09-19.46L23.09-19.46Q23.27-18.94 23.31-18.91L23.31-18.91L23.31-18.91Q23.35-18.76 23.72-18.35L23.72-18.35L23.72-18.35Q24.09-17.94 24.09-17.69L24.09-17.69L24.09-17.69Q24.09-17.54 24.05-17.35L24.05-17.35L24.05-17.35Q24.20-16.95 24.20-16.76L24.20-16.76L24.20-16.76Q24.20-16.65 24.16-16.58ZM4.29-10.06L4.29-10.06L4.29-10.06Q3.40-10.06 2.59-11.14L2.59-11.14L2.59-11.14Q2.63-11.51 2.85-12.06L2.85-12.06L2.85-12.06Q3.22-12.14 3.48-11.77L3.48-11.77L3.48-11.77Q3.85-11.21 3.88-11.21L3.88-11.21L3.88-11.21Q4.29-10.36 4.29-10.06ZM13.69 1.37L16.09 1.55L15.39 1.96L14.58 1.70L13.69 1.37ZM10.03 1.63L10.10 1.81L10.10 1.81Q10.03 2.07 9.73 2.48L9.73 2.48L9.73 2.48Q9.40 2.48 8.81 1.78L8.81 1.78L8.81 1.78Q9.03 1.63 9.40 1.63L9.40 1.63L10.03 1.63ZM8.03 0.92L8.03 0.92L7.33 1.11L7.33 0.70L7.33 0.70Q7.51 0.48 7.70 0.48L7.70 0.48L7.70 0.48Q7.81 0.48 7.84 0.59L7.84 0.59L7.84 0.59Q8.03 0.81 8.03 0.92Z" transform="translate(132.087858 32.4854732)"></path></g></svg></g> <!----></g>  <!----></svg>