<?xml version="1.0" encoding="UTF-8" standalone="no"?>
<!DOCTYPE svg PUBLIC "-//W3C//DTD SVG 1.1//EN"
 "http://www.w3.org/Graphics/SVG/1.1/DTD/svg11.dtd">
<!-- Generated by graphviz version 2.40.1 (20161225.0304)
 -->
<!-- Title: dependencies Pages: 1 -->
<svg width="504pt" height="211pt"
 viewBox="0.00 0.00 504.00 211.00" xmlns="http://www.w3.org/2000/svg" xmlns:xlink="http://www.w3.org/1999/xlink">
<g id="graph0" class="graph" transform="scale(1 1) rotate(0) translate(4 207)">
<title>dependencies</title>
<polygon fill="#ffffff" stroke="transparent" points="-4,4 -4,-207 500,-207 500,4 -4,4"/>
<text text-anchor="start" x="227.0091" y="-42.4" font-family="sans-serif" font-weight="bold" font-size="14.00" fill="#000000">Legend</text>
<polygon fill="#ffffb3" stroke="transparent" points="14,-10 14,-30 34,-30 34,-10 14,-10"/>
<text text-anchor="start" x="37.629" y="-15.4" font-family="sans-serif" font-size="14.00" fill="#000000"> &#160;Declarations</text>
<polygon fill="#8dd3c7" stroke="transparent" points="127,-10 127,-30 147,-30 147,-10 127,-10"/>
<text text-anchor="start" x="150.7251" y="-15.4" font-family="sans-serif" font-size="14.00" fill="#000000"> &#160;Module</text>
<polygon fill="#80b1d3" stroke="transparent" points="213,-10 213,-30 233,-30 233,-10 213,-10"/>
<text text-anchor="start" x="236.7812" y="-15.4" font-family="sans-serif" font-size="14.00" fill="#000000"> &#160;Bootstrap</text>
<polygon fill="#fdb462" stroke="transparent" points="310,-10 310,-30 330,-30 330,-10 310,-10"/>
<text text-anchor="start" x="333.6732" y="-15.4" font-family="sans-serif" font-size="14.00" fill="#000000"> &#160;Providers</text>
<polygon fill="#fb8072" stroke="transparent" points="406,-10 406,-30 426,-30 426,-10 406,-10"/>
<text text-anchor="start" x="429.7258" y="-15.4" font-family="sans-serif" font-size="14.00" fill="#000000"> &#160;Exports</text>
<g id="clust1" class="cluster">
<title>cluster_AppModule</title>
<polygon fill="none" stroke="#000000" stroke-dasharray="1,5" points="34,-70 34,-195 462,-195 462,-70 34,-70"/>
</g>
<g id="clust3" class="cluster">
<title>cluster_AppModule_imports</title>
<polygon fill="none" stroke="#000000" points="126,-78 126,-130 454,-130 454,-78 126,-78"/>
</g>
<g id="clust6" class="cluster">
<title>cluster_AppModule_providers</title>
<polygon fill="none" stroke="#000000" points="42,-78 42,-130 118,-130 118,-78 42,-78"/>
</g>
<!-- ApiModule -->
<g id="node1" class="node">
<title>ApiModule</title>
<polygon fill="#8dd3c7" stroke="#000000" points="446.0483,-122 443.0483,-126 422.0483,-126 419.0483,-122 365.9517,-122 365.9517,-86 446.0483,-86 446.0483,-122"/>
<text text-anchor="middle" x="406" y="-99.8" font-family="Times,serif" font-size="14.00" fill="#000000">ApiModule</text>
</g>
<!-- AppModule -->
<g id="node4" class="node">
<title>AppModule</title>
<polygon fill="#8dd3c7" stroke="#000000" points="275.6571,-187 272.6571,-191 251.6571,-191 248.6571,-187 192.3429,-187 192.3429,-151 275.6571,-151 275.6571,-187"/>
<text text-anchor="middle" x="234" y="-164.8" font-family="Times,serif" font-size="14.00" fill="#000000">AppModule</text>
</g>
<!-- ApiModule&#45;&gt;AppModule -->
<g id="edge1" class="edge">
<title>ApiModule&#45;&gt;AppModule</title>
<path fill="none" stroke="#000000" d="M406,-122.1061C406,-141.3391 406,-169 406,-169 406,-169 286.0759,-169 286.0759,-169"/>
<polygon fill="#000000" stroke="#000000" points="286.076,-165.5001 276.0759,-169 286.0759,-172.5001 286.076,-165.5001"/>
</g>
<!-- CommonModule -->
<g id="node2" class="node">
<title>CommonModule</title>
<polygon fill="#8dd3c7" stroke="#000000" points="347.6681,-122 344.6681,-126 323.6681,-126 320.6681,-122 236.3319,-122 236.3319,-86 347.6681,-86 347.6681,-122"/>
<text text-anchor="middle" x="292" y="-99.8" font-family="Times,serif" font-size="14.00" fill="#000000">CommonModule</text>
</g>
<!-- CommonModule&#45;&gt;AppModule -->
<g id="edge2" class="edge">
<title>CommonModule&#45;&gt;AppModule</title>
<path fill="none" stroke="#000000" d="M255.9972,-122.1061C255.9972,-122.1061 255.9972,-140.991 255.9972,-140.991"/>
<polygon fill="#000000" stroke="#000000" points="252.4973,-140.9909 255.9972,-150.991 259.4973,-140.991 252.4973,-140.9909"/>
</g>
<!-- SSRModule -->
<g id="node3" class="node">
<title>SSRModule</title>
<polygon fill="#8dd3c7" stroke="#000000" points="218.4528,-122 215.4528,-126 194.4528,-126 191.4528,-122 133.5472,-122 133.5472,-86 218.4528,-86 218.4528,-122"/>
<text text-anchor="middle" x="176" y="-99.8" font-family="Times,serif" font-size="14.00" fill="#000000">SSRModule</text>
</g>
<!-- SSRModule&#45;&gt;AppModule -->
<g id="edge3" class="edge">
<title>SSRModule&#45;&gt;AppModule</title>
<path fill="none" stroke="#000000" d="M205.1988,-122.1061C205.1988,-122.1061 205.1988,-140.991 205.1988,-140.991"/>
<polygon fill="#000000" stroke="#000000" points="201.6989,-140.9909 205.1988,-150.991 208.6989,-140.991 201.6989,-140.9909"/>
</g>
<!-- Seed -->
<g id="node5" class="node">
<title>Seed</title>
<ellipse fill="#fdb462" stroke="#000000" cx="80" cy="-104" rx="29.6147" ry="18"/>
<text text-anchor="middle" x="80" y="-99.8" font-family="Times,serif" font-size="14.00" fill="#000000">Seed</text>
</g>
<!-- Seed&#45;&gt;AppModule -->
<g id="edge4" class="edge">
<title>Seed&#45;&gt;AppModule</title>
<path fill="none" stroke="#000000" d="M80,-122.1061C80,-141.3391 80,-169 80,-169 80,-169 182.3254,-169 182.3254,-169"/>
<polygon fill="#000000" stroke="#000000" points="182.3254,-172.5001 192.3254,-169 182.3253,-165.5001 182.3254,-172.5001"/>
</g>
</g>
</svg>
