<?xml version="1.0" encoding="UTF-8" standalone="no"?>
<!DOCTYPE svg PUBLIC "-//W3C//DTD SVG 1.1//EN"
 "http://www.w3.org/Graphics/SVG/1.1/DTD/svg11.dtd">
<!-- Generated by graphviz version 2.40.1 (20161225.0304)
 -->
<!-- Title: dependencies Pages: 1 -->
<svg width="3008pt" height="287pt"
 viewBox="0.00 0.00 3008.00 287.00" xmlns="http://www.w3.org/2000/svg" xmlns:xlink="http://www.w3.org/1999/xlink">
<g id="graph0" class="graph" transform="scale(1 1) rotate(0) translate(4 283)">
<title>dependencies</title>
<polygon fill="#ffffff" stroke="transparent" points="-4,4 -4,-283 3004,-283 3004,4 -4,4"/>
<text text-anchor="start" x="1479.0091" y="-42.4" font-family="sans-serif" font-weight="bold" font-size="14.00" fill="#000000">Legend</text>
<polygon fill="#ffffb3" stroke="transparent" points="1266,-10 1266,-30 1286,-30 1286,-10 1266,-10"/>
<text text-anchor="start" x="1289.629" y="-15.4" font-family="sans-serif" font-size="14.00" fill="#000000"> &#160;Declarations</text>
<polygon fill="#8dd3c7" stroke="transparent" points="1379,-10 1379,-30 1399,-30 1399,-10 1379,-10"/>
<text text-anchor="start" x="1402.7251" y="-15.4" font-family="sans-serif" font-size="14.00" fill="#000000"> &#160;Module</text>
<polygon fill="#80b1d3" stroke="transparent" points="1465,-10 1465,-30 1485,-30 1485,-10 1465,-10"/>
<text text-anchor="start" x="1488.7812" y="-15.4" font-family="sans-serif" font-size="14.00" fill="#000000"> &#160;Bootstrap</text>
<polygon fill="#fdb462" stroke="transparent" points="1562,-10 1562,-30 1582,-30 1582,-10 1562,-10"/>
<text text-anchor="start" x="1585.6732" y="-15.4" font-family="sans-serif" font-size="14.00" fill="#000000"> &#160;Providers</text>
<polygon fill="#fb8072" stroke="transparent" points="1658,-10 1658,-30 1678,-30 1678,-10 1658,-10"/>
<text text-anchor="start" x="1681.7258" y="-15.4" font-family="sans-serif" font-size="14.00" fill="#000000"> &#160;Exports</text>
<g id="clust7" class="cluster">
<title>cluster_AppModule</title>
<polygon fill="none" stroke="#000000" stroke-dasharray="1,5" points="1395,-146 1395,-271 1823,-271 1823,-146 1395,-146"/>
</g>
<g id="clust9" class="cluster">
<title>cluster_AppModule_imports</title>
<polygon fill="none" stroke="#000000" points="1487,-154 1487,-206 1815,-206 1815,-154 1487,-154"/>
</g>
<g id="clust12" class="cluster">
<title>cluster_AppModule_providers</title>
<polygon fill="none" stroke="#000000" points="1403,-154 1403,-206 1479,-206 1479,-154 1403,-154"/>
</g>
<g id="clust13" class="cluster">
<title>cluster_CommonModule</title>
<polygon fill="none" stroke="#000000" stroke-dasharray="1,5" points="8,-70 8,-138 2992,-138 2992,-70 8,-70"/>
</g>
<g id="clust16" class="cluster">
<title>cluster_CommonModule_exports</title>
<polygon fill="none" stroke="#000000" points="1747,-78 1747,-130 2984,-130 2984,-78 1747,-78"/>
</g>
<g id="clust18" class="cluster">
<title>cluster_CommonModule_providers</title>
<polygon fill="none" stroke="#000000" points="16,-78 16,-130 1739,-130 1739,-78 16,-78"/>
</g>
<!-- ApiModule -->
<g id="node1" class="node">
<title>ApiModule</title>
<polygon fill="#8dd3c7" stroke="#000000" points="1807.0483,-198 1804.0483,-202 1783.0483,-202 1780.0483,-198 1726.9517,-198 1726.9517,-162 1807.0483,-162 1807.0483,-198"/>
<text text-anchor="middle" x="1767" y="-175.8" font-family="Times,serif" font-size="14.00" fill="#000000">ApiModule</text>
</g>
<!-- AppModule -->
<g id="node4" class="node">
<title>AppModule</title>
<polygon fill="#8dd3c7" stroke="#000000" points="1636.6571,-263 1633.6571,-267 1612.6571,-267 1609.6571,-263 1553.3429,-263 1553.3429,-227 1636.6571,-227 1636.6571,-263"/>
<text text-anchor="middle" x="1595" y="-240.8" font-family="Times,serif" font-size="14.00" fill="#000000">AppModule</text>
</g>
<!-- ApiModule&#45;&gt;AppModule -->
<g id="edge1" class="edge">
<title>ApiModule&#45;&gt;AppModule</title>
<path fill="none" stroke="#000000" d="M1767,-198.1061C1767,-217.3391 1767,-245 1767,-245 1767,-245 1647.0759,-245 1647.0759,-245"/>
<polygon fill="#000000" stroke="#000000" points="1647.076,-241.5001 1637.0759,-245 1647.0759,-248.5001 1647.076,-241.5001"/>
</g>
<!-- CommonModule -->
<g id="node2" class="node">
<title>CommonModule</title>
<polygon fill="#8dd3c7" stroke="#000000" points="1708.6681,-198 1705.6681,-202 1684.6681,-202 1681.6681,-198 1597.3319,-198 1597.3319,-162 1708.6681,-162 1708.6681,-198"/>
<text text-anchor="middle" x="1653" y="-175.8" font-family="Times,serif" font-size="14.00" fill="#000000">CommonModule</text>
</g>
<!-- CommonModule&#45;&gt;AppModule -->
<g id="edge2" class="edge">
<title>CommonModule&#45;&gt;AppModule</title>
<path fill="none" stroke="#000000" d="M1626.9127,-198.1061C1626.9127,-198.1061 1626.9127,-216.991 1626.9127,-216.991"/>
<polygon fill="#000000" stroke="#000000" points="1623.4128,-216.9909 1626.9127,-226.991 1630.4128,-216.991 1623.4128,-216.9909"/>
</g>
<!-- AuthorityService  -->
<g id="node6" class="node">
<title>AuthorityService </title>
<polygon fill="#fb8072" stroke="#000000" points="2975.9166,-122 2860.0834,-122 2860.0834,-86 2975.9166,-86 2975.9166,-122"/>
<text text-anchor="middle" x="2918" y="-99.8" font-family="Times,serif" font-size="14.00" fill="#000000">AuthorityService </text>
</g>
<!-- CommonModule&#45;&gt;AuthorityService  -->
<g id="edge5" class="edge">
<title>CommonModule&#45;&gt;AuthorityService </title>
<path fill="none" stroke="#000000" stroke-dasharray="5,2" d="M1703.2504,-161.8457C1703.2504,-160.7031 1703.2504,-160 1703.2504,-160 1703.2504,-160 2918,-160 2918,-160 2918,-160 2918,-132.027 2918,-132.027"/>
<polygon fill="#000000" stroke="#000000" points="2921.5001,-132.027 2918,-122.027 2914.5001,-132.027 2921.5001,-132.027"/>
</g>
<!-- CategoryService  -->
<g id="node7" class="node">
<title>CategoryService </title>
<polygon fill="#fb8072" stroke="#000000" points="2842.2948,-122 2729.7052,-122 2729.7052,-86 2842.2948,-86 2842.2948,-122"/>
<text text-anchor="middle" x="2786" y="-99.8" font-family="Times,serif" font-size="14.00" fill="#000000">CategoryService </text>
</g>
<!-- CommonModule&#45;&gt;CategoryService  -->
<g id="edge6" class="edge">
<title>CommonModule&#45;&gt;CategoryService </title>
<path fill="none" stroke="#000000" stroke-dasharray="5,2" d="M1697.667,-161.8321C1697.667,-159.5522 1697.667,-158 1697.667,-158 1697.667,-158 2786,-158 2786,-158 2786,-158 2786,-132.2819 2786,-132.2819"/>
<polygon fill="#000000" stroke="#000000" points="2789.5001,-132.2819 2786,-122.2819 2782.5001,-132.282 2789.5001,-132.2819"/>
</g>
<!-- CommonService  -->
<g id="node8" class="node">
<title>CommonService </title>
<polygon fill="#fb8072" stroke="#000000" points="2711.5961,-122 2598.4039,-122 2598.4039,-86 2711.5961,-86 2711.5961,-122"/>
<text text-anchor="middle" x="2655" y="-99.8" font-family="Times,serif" font-size="14.00" fill="#000000">CommonService </text>
</g>
<!-- CommonModule&#45;&gt;CommonService  -->
<g id="edge7" class="edge">
<title>CommonModule&#45;&gt;CommonService </title>
<path fill="none" stroke="#000000" stroke-dasharray="5,2" d="M1692.0837,-161.8097C1692.0837,-158.4624 1692.0837,-156 1692.0837,-156 1692.0837,-156 2655,-156 2655,-156 2655,-156 2655,-132.1871 2655,-132.1871"/>
<polygon fill="#000000" stroke="#000000" points="2658.5001,-132.187 2655,-122.1871 2651.5001,-132.1871 2658.5001,-132.187"/>
</g>
<!-- ContentService  -->
<g id="node9" class="node">
<title>ContentService </title>
<polygon fill="#fb8072" stroke="#000000" points="2579.8102,-122 2474.1898,-122 2474.1898,-86 2579.8102,-86 2579.8102,-122"/>
<text text-anchor="middle" x="2527" y="-99.8" font-family="Times,serif" font-size="14.00" fill="#000000">ContentService </text>
</g>
<!-- CommonModule&#45;&gt;ContentService  -->
<g id="edge8" class="edge">
<title>CommonModule&#45;&gt;ContentService </title>
<path fill="none" stroke="#000000" stroke-dasharray="5,2" d="M1686.5003,-161.9421C1686.5003,-157.5055 1686.5003,-154 1686.5003,-154 1686.5003,-154 2527,-154 2527,-154 2527,-154 2527,-132.0511 2527,-132.0511"/>
<polygon fill="#000000" stroke="#000000" points="2530.5001,-132.0511 2527,-122.0511 2523.5001,-132.0512 2530.5001,-132.0511"/>
</g>
<!-- ImportService  -->
<g id="node10" class="node">
<title>ImportService </title>
<polygon fill="#fb8072" stroke="#000000" points="2455.5809,-122 2356.4191,-122 2356.4191,-86 2455.5809,-86 2455.5809,-122"/>
<text text-anchor="middle" x="2406" y="-99.8" font-family="Times,serif" font-size="14.00" fill="#000000">ImportService </text>
</g>
<!-- CommonModule&#45;&gt;ImportService  -->
<g id="edge9" class="edge">
<title>CommonModule&#45;&gt;ImportService </title>
<path fill="none" stroke="#000000" stroke-dasharray="5,2" d="M1680.9169,-161.793C1680.9169,-156.4451 1680.9169,-152 1680.9169,-152 1680.9169,-152 2406,-152 2406,-152 2406,-152 2406,-132.1467 2406,-132.1467"/>
<polygon fill="#000000" stroke="#000000" points="2409.5001,-132.1467 2406,-122.1467 2402.5001,-132.1468 2409.5001,-132.1467"/>
</g>
<!-- OrganizationService  -->
<g id="node11" class="node">
<title>OrganizationService </title>
<polygon fill="#fb8072" stroke="#000000" points="2338.0611,-122 2203.9389,-122 2203.9389,-86 2338.0611,-86 2338.0611,-122"/>
<text text-anchor="middle" x="2271" y="-99.8" font-family="Times,serif" font-size="14.00" fill="#000000">OrganizationService </text>
</g>
<!-- CommonModule&#45;&gt;OrganizationService  -->
<g id="edge10" class="edge">
<title>CommonModule&#45;&gt;OrganizationService </title>
<path fill="none" stroke="#000000" stroke-dasharray="5,2" d="M1675.3335,-161.8568C1675.3335,-155.5389 1675.3335,-150 1675.3335,-150 1675.3335,-150 2271,-150 2271,-150 2271,-150 2271,-132.1804 2271,-132.1804"/>
<polygon fill="#000000" stroke="#000000" points="2274.5001,-132.1804 2271,-122.1804 2267.5001,-132.1805 2274.5001,-132.1804"/>
</g>
<!-- RoleService  -->
<g id="node12" class="node">
<title>RoleService </title>
<polygon fill="#fb8072" stroke="#000000" points="2185.9194,-122 2098.0806,-122 2098.0806,-86 2185.9194,-86 2185.9194,-122"/>
<text text-anchor="middle" x="2142" y="-99.8" font-family="Times,serif" font-size="14.00" fill="#000000">RoleService </text>
</g>
<!-- CommonModule&#45;&gt;RoleService  -->
<g id="edge11" class="edge">
<title>CommonModule&#45;&gt;RoleService </title>
<path fill="none" stroke="#000000" stroke-dasharray="5,2" d="M1669.7501,-161.7566C1669.7501,-154.5703 1669.7501,-148 1669.7501,-148 1669.7501,-148 2142,-148 2142,-148 2142,-148 2142,-132.1505 2142,-132.1505"/>
<polygon fill="#000000" stroke="#000000" points="2145.5001,-132.1505 2142,-122.1505 2138.5001,-132.1506 2145.5001,-132.1505"/>
</g>
<!-- SearchService  -->
<g id="node13" class="node">
<title>SearchService </title>
<polygon fill="#fb8072" stroke="#000000" points="2079.5655,-122 1980.4345,-122 1980.4345,-86 2079.5655,-86 2079.5655,-122"/>
<text text-anchor="middle" x="2030" y="-99.8" font-family="Times,serif" font-size="14.00" fill="#000000">SearchService </text>
</g>
<!-- CommonModule&#45;&gt;SearchService  -->
<g id="edge12" class="edge">
<title>CommonModule&#45;&gt;SearchService </title>
<path fill="none" stroke="#000000" stroke-dasharray="5,2" d="M1664.1668,-161.8056C1664.1668,-153.7218 1664.1668,-146 1664.1668,-146 1664.1668,-146 2030,-146 2030,-146 2030,-146 2030,-132.0555 2030,-132.0555"/>
<polygon fill="#000000" stroke="#000000" points="2033.5001,-132.0555 2030,-122.0555 2026.5001,-132.0556 2033.5001,-132.0555"/>
</g>
<!-- SettingService  -->
<g id="node14" class="node">
<title>SettingService </title>
<polygon fill="#fb8072" stroke="#000000" points="1962.6467,-122 1861.3533,-122 1861.3533,-86 1962.6467,-86 1962.6467,-122"/>
<text text-anchor="middle" x="1912" y="-99.8" font-family="Times,serif" font-size="14.00" fill="#000000">SettingService </text>
</g>
<!-- CommonModule&#45;&gt;SettingService  -->
<g id="edge13" class="edge">
<title>CommonModule&#45;&gt;SettingService </title>
<path fill="none" stroke="#000000" stroke-dasharray="5,2" d="M1658.5834,-161.5782C1658.5834,-152.7209 1658.5834,-144 1658.5834,-144 1658.5834,-144 1912,-144 1912,-144 1912,-144 1912,-132.1274 1912,-132.1274"/>
<polygon fill="#000000" stroke="#000000" points="1915.5001,-132.1274 1912,-122.1274 1908.5001,-132.1275 1915.5001,-132.1274"/>
</g>
<!-- UserService  -->
<g id="node15" class="node">
<title>UserService </title>
<polygon fill="#fb8072" stroke="#000000" points="1842.9041,-122 1755.0959,-122 1755.0959,-86 1842.9041,-86 1842.9041,-122"/>
<text text-anchor="middle" x="1799" y="-99.8" font-family="Times,serif" font-size="14.00" fill="#000000">UserService </text>
</g>
<!-- CommonModule&#45;&gt;UserService  -->
<g id="edge14" class="edge">
<title>CommonModule&#45;&gt;UserService </title>
<path fill="none" stroke="#000000" stroke-dasharray="5,2" d="M1653,-161.8701C1653,-151.6855 1653,-141 1653,-141 1653,-141 1781.1608,-141 1781.1608,-141 1781.1608,-141 1781.1608,-132.0664 1781.1608,-132.0664"/>
<polygon fill="#000000" stroke="#000000" points="1784.6608,-132.0664 1781.1608,-122.0664 1777.6608,-132.0665 1784.6608,-132.0664"/>
</g>
<!-- SSRModule -->
<g id="node3" class="node">
<title>SSRModule</title>
<polygon fill="#8dd3c7" stroke="#000000" points="1579.4528,-198 1576.4528,-202 1555.4528,-202 1552.4528,-198 1494.5472,-198 1494.5472,-162 1579.4528,-162 1579.4528,-198"/>
<text text-anchor="middle" x="1537" y="-175.8" font-family="Times,serif" font-size="14.00" fill="#000000">SSRModule</text>
</g>
<!-- SSRModule&#45;&gt;AppModule -->
<g id="edge3" class="edge">
<title>SSRModule&#45;&gt;AppModule</title>
<path fill="none" stroke="#000000" d="M1566.1988,-198.1061C1566.1988,-198.1061 1566.1988,-216.991 1566.1988,-216.991"/>
<polygon fill="#000000" stroke="#000000" points="1562.6989,-216.9909 1566.1988,-226.991 1569.6989,-216.991 1562.6989,-216.9909"/>
</g>
<!-- Seed -->
<g id="node5" class="node">
<title>Seed</title>
<ellipse fill="#fdb462" stroke="#000000" cx="1441" cy="-180" rx="29.6147" ry="18"/>
<text text-anchor="middle" x="1441" y="-175.8" font-family="Times,serif" font-size="14.00" fill="#000000">Seed</text>
</g>
<!-- Seed&#45;&gt;AppModule -->
<g id="edge4" class="edge">
<title>Seed&#45;&gt;AppModule</title>
<path fill="none" stroke="#000000" d="M1441,-198.1061C1441,-217.3391 1441,-245 1441,-245 1441,-245 1543.3254,-245 1543.3254,-245"/>
<polygon fill="#000000" stroke="#000000" points="1543.3254,-248.5001 1553.3254,-245 1543.3253,-241.5001 1543.3254,-248.5001"/>
</g>
<!-- AuthorityService -->
<g id="node16" class="node">
<title>AuthorityService</title>
<ellipse fill="#fdb462" stroke="#000000" cx="1653" cy="-104" rx="77.5859" ry="18"/>
<text text-anchor="middle" x="1653" y="-99.8" font-family="Times,serif" font-size="14.00" fill="#000000">AuthorityService</text>
</g>
<!-- AuthorityService&#45;&gt;CommonModule -->
<g id="edge15" class="edge">
<title>AuthorityService&#45;&gt;CommonModule</title>
<path fill="none" stroke="#000000" d="M1647.4166,-122.0109C1647.4166,-122.0109 1647.4166,-151.855 1647.4166,-151.855"/>
<polygon fill="#000000" stroke="#000000" points="1643.9167,-151.8549 1647.4166,-161.855 1650.9167,-151.855 1643.9167,-151.8549"/>
</g>
<!-- CategoryService -->
<g id="node17" class="node">
<title>CategoryService</title>
<ellipse fill="#fdb462" stroke="#000000" cx="1482" cy="-104" rx="75.279" ry="18"/>
<text text-anchor="middle" x="1482" y="-99.8" font-family="Times,serif" font-size="14.00" fill="#000000">CategoryService</text>
</g>
<!-- CategoryService&#45;&gt;CommonModule -->
<g id="edge16" class="edge">
<title>CategoryService&#45;&gt;CommonModule</title>
<path fill="none" stroke="#000000" d="M1526.0818,-118.8129C1526.0818,-122.2878 1526.0818,-125 1526.0818,-125 1526.0818,-125 1641.8332,-125 1641.8332,-125 1641.8332,-125 1641.8332,-151.9909 1641.8332,-151.9909"/>
<polygon fill="#000000" stroke="#000000" points="1638.3333,-151.9909 1641.8332,-161.9909 1645.3333,-151.991 1638.3333,-151.9909"/>
</g>
<!-- CommonService -->
<g id="node18" class="node">
<title>CommonService</title>
<ellipse fill="#fdb462" stroke="#000000" cx="1313" cy="-104" rx="75.8836" ry="18"/>
<text text-anchor="middle" x="1313" y="-99.8" font-family="Times,serif" font-size="14.00" fill="#000000">CommonService</text>
</g>
<!-- CommonService&#45;&gt;CommonModule -->
<g id="edge17" class="edge">
<title>CommonService&#45;&gt;CommonModule</title>
<path fill="none" stroke="#000000" d="M1313,-122.1223C1313,-124.9729 1313,-127 1313,-127 1313,-127 1636.2499,-127 1636.2499,-127 1636.2499,-127 1636.2499,-151.7604 1636.2499,-151.7604"/>
<polygon fill="#000000" stroke="#000000" points="1632.75,-151.7604 1636.2499,-161.7604 1639.75,-151.7604 1632.75,-151.7604"/>
</g>
<!-- ContentService -->
<g id="node19" class="node">
<title>ContentService</title>
<ellipse fill="#fdb462" stroke="#000000" cx="1148" cy="-104" rx="70.6432" ry="18"/>
<text text-anchor="middle" x="1148" y="-99.8" font-family="Times,serif" font-size="14.00" fill="#000000">ContentService</text>
</g>
<!-- ContentService&#45;&gt;CommonModule -->
<g id="edge18" class="edge">
<title>ContentService&#45;&gt;CommonModule</title>
<path fill="none" stroke="#000000" d="M1148,-122.1686C1148,-126.0459 1148,-129 1148,-129 1148,-129 1630.6665,-129 1630.6665,-129 1630.6665,-129 1630.6665,-151.8757 1630.6665,-151.8757"/>
<polygon fill="#000000" stroke="#000000" points="1627.1666,-151.8757 1630.6665,-161.8757 1634.1666,-151.8757 1627.1666,-151.8757"/>
</g>
<!-- ImportService -->
<g id="node20" class="node">
<title>ImportService</title>
<ellipse fill="#fdb462" stroke="#000000" cx="993" cy="-104" rx="66.0492" ry="18"/>
<text text-anchor="middle" x="993" y="-99.8" font-family="Times,serif" font-size="14.00" fill="#000000">ImportService</text>
</g>
<!-- ImportService&#45;&gt;CommonModule -->
<g id="edge19" class="edge">
<title>ImportService&#45;&gt;CommonModule</title>
<path fill="none" stroke="#000000" d="M993,-122.1592C993,-127.0433 993,-131 993,-131 993,-131 1625.0831,-131 1625.0831,-131 1625.0831,-131 1625.0831,-151.7542 1625.0831,-151.7542"/>
<polygon fill="#000000" stroke="#000000" points="1621.5832,-151.7542 1625.0831,-161.7542 1628.5832,-151.7542 1621.5832,-151.7542"/>
</g>
<!-- JwtStrategy -->
<g id="node21" class="node">
<title>JwtStrategy</title>
<ellipse fill="#fdb462" stroke="#000000" cx="852" cy="-104" rx="56.7561" ry="18"/>
<text text-anchor="middle" x="852" y="-99.8" font-family="Times,serif" font-size="14.00" fill="#000000">JwtStrategy</text>
</g>
<!-- JwtStrategy&#45;&gt;CommonModule -->
<g id="edge20" class="edge">
<title>JwtStrategy&#45;&gt;CommonModule</title>
<path fill="none" stroke="#000000" d="M852,-122.2015C852,-128.028 852,-133 852,-133 852,-133 1619.4997,-133 1619.4997,-133 1619.4997,-133 1619.4997,-151.963 1619.4997,-151.963"/>
<polygon fill="#000000" stroke="#000000" points="1615.9998,-151.963 1619.4997,-161.963 1622.9998,-151.963 1615.9998,-151.963"/>
</g>
<!-- OrganizationService -->
<g id="node22" class="node">
<title>OrganizationService</title>
<ellipse fill="#fdb462" stroke="#000000" cx="687" cy="-104" rx="90.3062" ry="18"/>
<text text-anchor="middle" x="687" y="-99.8" font-family="Times,serif" font-size="14.00" fill="#000000">OrganizationService</text>
</g>
<!-- OrganizationService&#45;&gt;CommonModule -->
<g id="edge21" class="edge">
<title>OrganizationService&#45;&gt;CommonModule</title>
<path fill="none" stroke="#000000" d="M687,-122.0328C687,-128.8526 687,-135 687,-135 687,-135 1613.9163,-135 1613.9163,-135 1613.9163,-135 1613.9163,-151.9561 1613.9163,-151.9561"/>
<polygon fill="#000000" stroke="#000000" points="1610.4164,-151.956 1613.9163,-161.9561 1617.4164,-151.9561 1610.4164,-151.956"/>
</g>
<!-- RoleService -->
<g id="node23" class="node">
<title>RoleService</title>
<ellipse fill="#fdb462" stroke="#000000" cx="520" cy="-104" rx="58.4628" ry="18"/>
<text text-anchor="middle" x="520" y="-99.8" font-family="Times,serif" font-size="14.00" fill="#000000">RoleService</text>
</g>
<!-- RoleService&#45;&gt;CommonModule -->
<g id="edge22" class="edge">
<title>RoleService&#45;&gt;CommonModule</title>
<path fill="none" stroke="#000000" d="M520,-122.0449C520,-129.749 520,-137 520,-137 520,-137 1608.333,-137 1608.333,-137 1608.333,-137 1608.333,-151.5146 1608.333,-151.5146"/>
<polygon fill="#000000" stroke="#000000" points="1604.8331,-151.5145 1608.333,-161.5146 1611.8331,-151.5146 1604.8331,-151.5145"/>
</g>
<!-- SearchService -->
<g id="node24" class="node">
<title>SearchService</title>
<ellipse fill="#fdb462" stroke="#000000" cx="378" cy="-104" rx="66.0281" ry="18"/>
<text text-anchor="middle" x="378" y="-99.8" font-family="Times,serif" font-size="14.00" fill="#000000">SearchService</text>
</g>
<!-- SearchService&#45;&gt;CommonModule -->
<g id="edge23" class="edge">
<title>SearchService&#45;&gt;CommonModule</title>
<path fill="none" stroke="#000000" d="M378,-122.32C378,-130.7883 378,-139 378,-139 378,-139 1602.7496,-139 1602.7496,-139 1602.7496,-139 1602.7496,-151.8975 1602.7496,-151.8975"/>
<polygon fill="#000000" stroke="#000000" points="1599.2497,-151.8974 1602.7496,-161.8975 1606.2497,-151.8975 1599.2497,-151.8974"/>
</g>
<!-- SettingService -->
<g id="node25" class="node">
<title>SettingService</title>
<ellipse fill="#fdb462" stroke="#000000" cx="226" cy="-104" rx="67.21" ry="18"/>
<text text-anchor="middle" x="226" y="-99.8" font-family="Times,serif" font-size="14.00" fill="#000000">SettingService</text>
</g>
<!-- SettingService&#45;&gt;CommonModule -->
<g id="edge24" class="edge">
<title>SettingService&#45;&gt;CommonModule</title>
<path fill="none" stroke="#000000" d="M226,-122.1154C226,-151.9121 226,-208 226,-208 226,-208 1607.0817,-208 1607.0817,-208 1607.0817,-208 1607.0817,-207.0207 1607.0817,-207.0207"/>
<polygon fill="#000000" stroke="#000000" points="1610.5818,-208.2069 1607.0817,-198.207 1603.5818,-208.207 1610.5818,-208.2069"/>
</g>
<!-- UserService -->
<g id="node26" class="node">
<title>UserService</title>
<ellipse fill="#fdb462" stroke="#000000" cx="82" cy="-104" rx="58.4415" ry="18"/>
<text text-anchor="middle" x="82" y="-99.8" font-family="Times,serif" font-size="14.00" fill="#000000">UserService</text>
</g>
<!-- UserService&#45;&gt;CommonModule -->
<g id="edge25" class="edge">
<title>UserService&#45;&gt;CommonModule</title>
<path fill="none" stroke="#000000" d="M82,-122.0636C82,-154.2085 82,-218 82,-218 82,-218 1616.9972,-218 1616.9972,-218 1616.9972,-218 1616.9972,-208.1097 1616.9972,-208.1097"/>
<polygon fill="#000000" stroke="#000000" points="1620.4973,-208.1096 1616.9972,-198.1097 1613.4973,-208.1097 1620.4973,-208.1096"/>
</g>
</g>
</svg>
